<svg xmlns="http://www.w3.org/2000/svg" version="1.1" xmlns:xlink="http://www.w3.org/1999/xlink" xmlns:svgjs="http://svgjs.com/svgjs" id="svg-pattern-473" width="100%" height="100%"><defs><pattern x="0" y="0" width="64" height="64" patternUnits="userSpaceOnUse" id="pattern-473-layer-1"><g id="PatternRootContent1" transform="scale(1)"><rect y="0" class="fill0" width="64" height="64" fill="#fff4ed"></rect>
<g class="fill1" fill="#b9a8b6">
	<path d="M8.735,63.063c0.47-0.679-0.639-1.319-1.105-0.646C7.265,62.945,6.899,63.472,6.534,64h1.553L8.735,63.063z"></path>
	<path d="M21.098,60.415c0.425-0.708-0.681-1.352-1.105-0.646C19.146,61.179,18.3,62.59,17.454,64h1.493
		C19.663,62.805,20.381,61.61,21.098,60.415z"></path>
	<path d="M30.542,61.063c0.55-0.61-0.352-1.518-0.905-0.905c-1.034,1.146-1.896,2.415-2.561,3.809
		c-0.005,0.011-0.007,0.022-0.012,0.034h1.428C29.056,62.941,29.734,61.959,30.542,61.063z"></path>
	<path d="M42.849,61.213c0.503-0.641-0.397-1.553-0.905-0.905c-0.936,1.194-1.818,2.423-2.644,3.692h1.534
		C41.472,63.048,42.14,62.116,42.849,61.213z"></path>
	<path d="M55.368,60.694c0.485-0.667-0.625-1.307-1.105-0.646c-0.917,1.262-1.74,2.581-2.479,3.952h1.456
		C53.886,62.859,54.595,61.757,55.368,60.694z"></path>
	<path d="M60.998,62.529c0.403-0.72-0.703-1.366-1.105-0.646c-0.395,0.706-0.79,1.411-1.184,2.117h1.467
		C60.45,63.51,60.724,63.019,60.998,62.529z"></path>
	<path d="M2.423,63.45C2.3,63.633,2.178,63.817,2.055,64h1.525C3.882,63.352,2.858,62.8,2.423,63.45z"></path>
	<path d="M62.968,12.769c-0.418,0.663,0.556,1.274,1.032,0.74v-2.377C63.656,11.677,63.312,12.223,62.968,12.769z"></path>
	<path d="M63.298,25.052c0.234-0.332,0.468-0.664,0.702-0.996v-2.213c-0.602,0.854-1.205,1.708-1.808,2.562
		C61.717,25.08,62.826,25.72,63.298,25.052z"></path>
	<path d="M5.277,1.815c-0.47,0.679,0.639,1.319,1.105,0.646L8.086,0H6.534C6.115,0.605,5.696,1.21,5.277,1.815z"></path>
	<path d="M8.025,4.038c-1.181,1.771-2.414,3.504-3.699,5.2c-0.497,0.657,0.614,1.295,1.105,0.646
		c1.285-1.697,2.518-3.43,3.699-5.2C9.588,3.997,8.48,3.355,8.025,4.038z"></path>
	<path d="M0.073,13.415c1.231-1.953,2.463-3.906,3.694-5.859c0.44-0.699-0.667-1.342-1.105-0.646
		C1.775,8.317,0.887,9.724,0,11.132v2.377C0.026,13.48,0.051,13.45,0.073,13.415z"></path>
	<path d="M8.745,10.923c-0.987,1.578-1.974,3.156-2.96,4.733C5.346,16.357,6.453,17,6.89,16.303l2.96-4.733
		C10.288,10.869,9.181,10.226,8.745,10.923z"></path>
	<path d="M3.624,18.919c0.476-0.674-0.633-1.315-1.105-0.646c-0.84,1.19-1.679,2.38-2.519,3.571v2.213
		C1.208,22.344,2.416,20.631,3.624,18.919z"></path>
	<path d="M10.777,14.89c-1.03,1.594-2.059,3.188-3.089,4.782c-0.448,0.694,0.659,1.336,1.105,0.646
		c1.029-1.594,2.059-3.188,3.089-4.782C12.33,14.842,11.223,14.199,10.777,14.89z"></path>
	<path d="M19.75,4.275c-0.963,1.697-1.925,3.393-2.888,5.09c-0.407,0.717,0.698,1.363,1.105,0.646
		c0.963-1.697,1.925-3.393,2.888-5.09C21.262,4.204,20.157,3.558,19.75,4.275z"></path>
	<path d="M16.221,2.053c-0.425,0.708,0.681,1.352,1.105,0.646c0.54-0.9,1.08-1.8,1.62-2.699h-1.493
		C17.043,0.684,16.632,1.369,16.221,2.053z"></path>
	<path d="M12.426,4.272l-1.173,2.093c-0.403,0.719,0.702,1.366,1.105,0.646c0.391-0.698,0.782-1.395,1.173-2.093
		C13.934,4.199,12.829,3.553,12.426,4.272z"></path>
	<path d="M19.498,13.299c-0.828,1.263-1.655,2.527-2.483,3.79c-0.453,0.691,0.655,1.333,1.105,0.646
		c0.828-1.263,1.655-2.527,2.483-3.79C21.056,13.254,19.948,12.612,19.498,13.299z"></path>
	<path d="M30.177,1.77c-1.093,1.468-2.078,3.003-2.956,4.608c-0.396,0.723,0.709,1.37,1.105,0.646
		c0.879-1.605,1.863-3.14,2.956-4.608C31.775,1.755,30.664,1.116,30.177,1.77z"></path>
	<path d="M28.181,0.612C28.28,0.405,28.385,0.202,28.492,0h-1.428C26.759,0.725,27.832,1.345,28.181,0.612z"></path>
	<path d="M26.164,13.038c-1.089,1.699-2.179,3.397-3.269,5.096c-0.446,0.695,0.662,1.338,1.105,0.646
		c1.09-1.699,2.179-3.397,3.269-5.096C27.716,12.988,26.608,12.346,26.164,13.038z"></path>
	<path d="M33.626,7.95c-1.017,1.339-2.034,2.678-3.051,4.017c-0.498,0.656,0.613,1.294,1.105,0.646
		c1.017-1.339,2.034-2.678,3.051-4.017C35.229,7.941,34.118,7.302,33.626,7.95z"></path>
	<path d="M38.576,1.142c-0.431,0.705,0.675,1.348,1.105,0.646c0.37-0.605,0.757-1.2,1.152-1.788h-1.534
		C39.054,0.377,38.812,0.757,38.576,1.142z"></path>
	<path d="M45.63,2.316l-4.089,6.118c-0.459,0.687,0.649,1.328,1.105,0.646l4.089-6.118
		C47.194,2.275,46.086,1.633,45.63,2.316z"></path>
	<path d="M36.743,14.078c-1.121,1.609-2.075,3.308-2.867,5.101c-0.33,0.747,0.773,1.399,1.105,0.646
		c0.792-1.794,1.747-3.492,2.867-5.102C38.32,14.047,37.211,13.406,36.743,14.078z"></path>
	<path d="M23.173,30.461c-0.529,0.625,0.372,1.535,0.905,0.905c1.329-1.569,2.416-3.286,3.235-5.174
		c0.325-0.748-0.778-1.401-1.105-0.646C25.434,27.331,24.431,28.976,23.173,30.461z"></path>
	<path d="M27.529,22.047c1.078-1.528,2.312-2.92,3.685-4.188c0.606-0.56-0.3-1.463-0.905-0.905
		c-1.454,1.343-2.745,2.83-3.885,4.447C25.948,22.076,27.057,22.716,27.529,22.047z"></path>
	<path d="M19.352,25.443c-1.161,1.741-2.366,3.45-3.616,5.128c-0.492,0.661,0.618,1.3,1.105,0.646
		c1.25-1.678,2.456-3.387,3.616-5.128C20.915,25.402,19.807,24.76,19.352,25.443z"></path>
	<path d="M14.926,23.271c-0.622,0.543,0.287,1.445,0.905,0.905c0.979-0.854,1.866-1.795,2.662-2.822
		c0.499-0.643-0.401-1.556-0.905-0.905C16.791,21.476,15.904,22.417,14.926,23.271z"></path>
	<path d="M11.495,21.403c-1.956,2.312-4.092,4.448-6.404,6.405c-0.63,0.533,0.28,1.434,0.905,0.905
		c2.312-1.957,4.448-4.092,6.404-6.405C12.929,21.683,12.028,20.773,11.495,21.403z"></path>
	<path d="M11.088,28.447c-1.539,1.834-2.962,3.754-4.261,5.765c-0.448,0.694,0.659,1.336,1.105,0.646
		c1.24-1.92,2.591-3.755,4.061-5.506C12.519,28.726,11.618,27.816,11.088,28.447z"></path>
	<path d="M14.33,39.691c0.816-1.304,1.736-2.526,2.767-3.667c0.551-0.61-0.351-1.518-0.905-0.905
		c-1.103,1.221-2.095,2.531-2.967,3.926C12.787,39.745,13.894,40.389,14.33,39.691z"></path>
	<path d="M23.084,37.206c0.598-1.002,1.303-1.914,2.122-2.746c0.578-0.588-0.326-1.493-0.905-0.905
		c-0.892,0.906-1.67,1.913-2.322,3.005C21.555,37.269,22.661,37.913,23.084,37.206z"></path>
	<path d="M32.53,29.256c0.917-1.5,1.772-3.034,2.567-4.602c0.371-0.733-0.732-1.382-1.105-0.646
		c-0.795,1.569-1.65,3.102-2.567,4.602C30.994,29.315,32.101,29.959,32.53,29.256z"></path>
	<path d="M43.28,16.825c-1.142,1.479-2.144,3.047-3.004,4.706c-0.379,0.73,0.725,1.378,1.105,0.646
		c0.861-1.659,1.862-3.227,3.004-4.706C44.888,16.819,43.777,16.181,43.28,16.825z"></path>
	<path d="M50.127,7.84c-0.767,1.158-1.535,2.317-2.302,3.475c-0.456,0.689,0.652,1.33,1.105,0.646
		c0.767-1.158,1.535-2.317,2.302-3.475C51.688,7.798,50.58,7.156,50.127,7.84z"></path>
	<path d="M51.517,0.49c-0.379,0.73,0.725,1.378,1.105,0.646C52.821,0.753,53.027,0.374,53.239,0h-1.456
		C51.695,0.164,51.603,0.325,51.517,0.49z"></path>
	<path d="M56.466,4.009c-0.403,0.72,0.703,1.366,1.105,0.646C58.44,3.103,59.307,1.552,60.175,0h-1.467
		C57.961,1.336,57.214,2.673,56.466,4.009z"></path>
	<path d="M64,3.509V3.094C63.938,3.243,63.947,3.385,64,3.509z"></path>
	<path d="M58.165,10.804c-1.819,2.873-3.535,5.807-5.149,8.8c-0.391,0.725,0.714,1.372,1.105,0.646
		c1.614-2.993,3.33-5.927,5.149-8.8C59.712,10.752,58.605,10.109,58.165,10.804z"></path>
	<path d="M54.486,9.242c-1.145,1.235-2.14,2.589-2.968,4.056c-0.405,0.718,0.7,1.364,1.105,0.646
		c0.776-1.375,1.694-2.64,2.768-3.797C55.95,9.544,55.047,8.637,54.486,9.242z"></path>
	<path d="M60.086,17.721c-1.467,1.784-2.8,3.662-3.987,5.644c-0.424,0.708,0.682,1.353,1.105,0.646
		c1.131-1.888,2.389-3.685,3.787-5.385C61.51,17.995,60.61,17.085,60.086,17.721z"></path>
	<path d="M51.069,35.519c1.07-1.528,2.171-3.032,3.306-4.513c0.501-0.654-0.611-1.292-1.105-0.646
		c-1.134,1.481-2.236,2.985-3.306,4.513C49.491,35.55,50.6,36.19,51.069,35.519z"></path>
	<path d="M45.955,25.052c0.857-1.47,1.912-2.772,3.168-3.921c0.609-0.557-0.298-1.46-0.905-0.905
		c-1.332,1.218-2.46,2.621-3.369,4.18C44.434,25.119,45.54,25.764,45.955,25.052z"></path>
	<path d="M35.082,38.313c1.028-1.237,1.976-2.533,2.838-3.891c0.443-0.698-0.665-1.341-1.105-0.646
		c-0.803,1.267-1.679,2.478-2.638,3.632C33.655,38.038,34.555,38.948,35.082,38.313z"></path>
	<path d="M40.365,28.056c0.612-0.554-0.296-1.457-0.905-0.905c-0.985,0.893-1.844,1.901-2.583,3.005
		c-0.46,0.686,0.649,1.328,1.105,0.646C38.663,29.787,39.46,28.877,40.365,28.056z"></path>
	<path d="M47.714,28.58c-1.431,1.922-2.861,3.844-4.292,5.766c-0.492,0.661,0.618,1.3,1.105,0.646
		c1.431-1.922,2.861-3.844,4.292-5.766C49.311,28.565,48.201,27.926,47.714,28.58z"></path>
	<path d="M53.048,25.41c0.33,0.193,0.664,0.045,0.876-0.23c0.432-0.562,0.752-1.181,0.994-1.845
		c0.118-0.325-0.133-0.701-0.447-0.787c-0.356-0.098-0.669,0.121-0.787,0.447c-0.203,0.558-0.504,1.069-0.865,1.54
		C52.608,24.808,52.777,25.251,53.048,25.41z"></path>
	<path d="M56.941,31.852c0.704-1.216,1.407-2.432,2.111-3.648c0.413-0.714-0.692-1.36-1.105-0.646
		c-0.703,1.216-1.407,2.432-2.111,3.648C55.422,31.92,56.528,32.566,56.941,31.852z"></path>
	<path d="M64,28.589c-0.122,0.043-0.235,0.127-0.322,0.265c-1.629,2.606-3.371,5.133-5.227,7.582
		c-0.498,0.656,0.613,1.295,1.105,0.646c1.563-2.063,3.041-4.186,4.444-6.36V28.589z"></path>
	<path d="M40.118,46.752c0.829-0.519,1.32-1.407,1.878-2.188c0.714-0.999,1.427-1.999,2.141-2.998
		c0.48-0.672-0.63-1.311-1.105-0.646l-1.69,2.367c-0.536,0.751-1.077,1.864-1.87,2.36C38.775,46.083,39.417,47.191,40.118,46.752z"></path>
	<path d="M36.866,40.735c-0.849,1.302-1.951,2.382-3.267,3.21c-0.695,0.438-0.054,1.546,0.646,1.105
		c1.503-0.946,2.756-2.181,3.726-3.669C38.422,40.689,37.314,40.047,36.866,40.735z"></path>
	<path d="M26.717,42.679c1.54-2.472,3.33-4.747,5.368-6.827c0.577-0.589-0.327-1.495-0.905-0.905
		c-2.113,2.156-3.972,4.524-5.568,7.086C25.175,42.734,26.282,43.378,26.717,42.679z"></path>
	<path d="M23.986,53.665c1.38-2.012,2.838-3.964,4.378-5.855c0.516-0.633-0.384-1.544-0.905-0.905
		c-1.609,1.976-3.137,4.013-4.579,6.114C22.414,53.7,23.523,54.341,23.986,53.665z"></path>
	<path d="M27.607,57.372l5.911-7.141c0.521-0.63-0.379-1.54-0.905-0.905l-5.911,7.141
		C26.181,57.097,27.081,58.008,27.607,57.372z"></path>
	<path d="M34.845,60.077c0.61-1.089,1.22-2.178,1.83-3.267c0.403-0.719-0.702-1.366-1.105-0.646
		c-0.61,1.089-1.22,2.178-1.83,3.267C33.337,60.15,34.442,60.796,34.845,60.077z"></path>
	<path d="M39.039,60.607c1.18-1.728,2.462-3.373,3.85-4.939c0.544-0.615-0.358-1.523-0.905-0.905
		c-1.459,1.647-2.809,3.381-4.05,5.198C37.468,60.643,38.577,61.284,39.039,60.607z"></path>
	<path d="M44.269,47.247c-1.374,1.199-2.748,2.398-4.122,3.597c-0.622,0.543,0.287,1.445,0.905,0.905
		c1.374-1.199,2.748-2.398,4.122-3.597C45.796,47.61,44.888,46.707,44.269,47.247z"></path>
	<path d="M52.432,39.306c-0.701,1.392-1.402,2.784-2.102,4.176c-0.37,0.734,0.734,1.383,1.105,0.646
		c0.701-1.392,1.402-2.784,2.102-4.176C53.907,39.218,52.803,38.569,52.432,39.306z"></path>
	<path d="M54.48,45.439c-1.757,1.957-3.382,4.02-4.875,6.185c-0.469,0.68,0.64,1.32,1.105,0.646
		c1.432-2.076,2.99-4.049,4.675-5.926C55.934,45.733,55.032,44.825,54.48,45.439z"></path>
	<path d="M49.145,61.156c1.237-1.962,2.508-3.903,3.812-5.822c0.464-0.683-0.644-1.324-1.105-0.646
		c-1.304,1.919-2.574,3.859-3.812,5.822C47.599,61.209,48.706,61.852,49.145,61.156z"></path>
	<path d="M47.01,57.337c0.288-0.571,0.633-1.103,1.053-1.586c0.538-0.619-0.364-1.528-0.905-0.905
		c-0.491,0.565-0.915,1.177-1.253,1.845C45.534,57.425,46.638,58.074,47.01,57.337z"></path>
	<path d="M57.291,56.533c0.76-1.649,1.609-3.247,2.549-4.8c0.428-0.707-0.679-1.351-1.105-0.646
		c-0.94,1.553-1.789,3.152-2.549,4.8C55.844,56.63,56.947,57.281,57.291,56.533z"></path>
	<path d="M63.106,57.61c0.298-0.548,0.596-1.096,0.894-1.644v-2.678c-0.666,1.225-1.333,2.451-2,3.676
		C61.607,57.688,62.712,58.335,63.106,57.61z"></path>
	<path d="M62.187,49.507c0.563-0.927,1.169-1.821,1.813-2.685v-2.08c-1.066,1.301-2.04,2.675-2.918,4.119
		C60.653,49.567,61.76,50.211,62.187,49.507z"></path>
	<path d="M62.176,40.222c0.608-0.939,1.216-1.878,1.824-2.817v-2.353c-0.976,1.508-1.953,3.016-2.929,4.524
		C60.622,40.269,61.729,40.912,62.176,40.222z"></path>
	<path d="M18.924,47.283c1.094-1.683,2.444-3.139,4.019-4.381c0.647-0.509-0.265-1.41-0.905-0.905
		c-1.661,1.308-3.067,2.868-4.22,4.64C17.368,47.33,18.476,47.972,18.924,47.283z"></path>
	<path d="M8.232,37.482c-1.094,1.215-2.129,2.477-3.116,3.78c-0.497,0.657,0.614,1.295,1.105,0.646
		c0.921-1.216,1.896-2.387,2.916-3.521C9.687,37.777,8.784,36.868,8.232,37.482z"></path>
	<path d="M9.7,50.589c1.938-1.721,3.791-3.529,5.559-5.424c0.561-0.602-0.342-1.509-0.905-0.905
		c-1.768,1.895-3.621,3.703-5.559,5.424C8.178,50.232,9.086,51.135,9.7,50.589z"></path>
	<path d="M6.915,45.184c-0.99,0.852-1.813,1.868-2.446,3.01c-0.4,0.721,0.705,1.367,1.105,0.646
		c0.586-1.054,1.332-1.964,2.246-2.751C8.446,45.55,7.537,44.649,6.915,45.184z"></path>
	<path d="M4.032,59.945c1.412-1.759,2.93-3.422,4.553-4.989c0.594-0.573-0.312-1.477-0.905-0.905
		c-1.624,1.566-3.141,3.229-4.553,4.988C2.616,59.676,3.516,60.587,4.032,59.945z"></path>
	<path d="M14.427,56.268c1.196-1.932,2.429-3.841,3.697-5.727c0.461-0.685-0.647-1.327-1.105-0.646
		c-1.269,1.886-2.501,3.794-3.697,5.727C12.887,56.324,13.994,56.968,14.427,56.268z"></path>
	<path d="M14.611,63.485c0.903-2.011,2.055-3.865,3.483-5.547c0.53-0.624-0.371-1.534-0.905-0.905
		c-1.499,1.765-2.734,3.693-3.683,5.806C13.17,63.584,14.273,64.236,14.611,63.485z"></path>
	<path d="M23.251,49.887c0.661-0.819,1.396-1.567,2.202-2.243c0.632-0.53-0.278-1.431-0.905-0.905
		c-0.806,0.676-1.54,1.424-2.202,2.243c-0.219,0.271-0.26,0.639,0,0.905C22.568,50.114,23.035,50.155,23.251,49.887z"></path>
	<path d="M59.029,39.931c-1.153,0.693-2.078,1.695-2.648,2.916c-0.346,0.742,0.757,1.393,1.105,0.646
		c0.482-1.032,1.211-1.868,2.189-2.457C60.38,40.612,59.738,39.505,59.029,39.931z"></path>
	<path d="M48.716,36.556c-1.041,0.68-1.903,1.561-2.552,2.622c-0.431,0.704,0.675,1.348,1.105,0.646
		c0.534-0.871,1.237-1.603,2.093-2.163C50.049,37.212,49.408,36.104,48.716,36.556z"></path>
	<path d="M61.025,4.411c-0.871,0.915-1.742,1.83-2.614,2.745c-0.568,0.596,0.336,1.503,0.905,0.905l2.614-2.745
		C62.498,4.719,61.594,3.813,61.025,4.411z"></path>
	<path d="M39.069,5.196c-0.782,0.967-1.394,2.006-1.866,3.156c-0.312,0.762,0.925,1.093,1.234,0.34
		c0.382-0.931,0.905-1.809,1.537-2.591C40.488,5.466,39.587,4.555,39.069,5.196z"></path>
	<path d="M40.882,16.289c1.618-1.912,3.235-3.824,4.852-5.736c0.529-0.625-0.372-1.535-0.905-0.905
		c-1.618,1.912-3.235,3.824-4.852,5.736C39.448,16.009,40.349,16.919,40.882,16.289z"></path>
	<path d="M0,3.509C0.175,3.914,0.84,4.112,1.169,3.62c0.786-1.175,1.573-2.35,2.359-3.524
		C3.55,0.064,3.565,0.032,3.579,0H2.055C1.391,0.991,0.728,1.983,0.064,2.974C0.037,3.014,0.017,3.054,0,3.094V3.509z"></path>
	<path d="M0,28.589v2.133c0.262-0.407,0.527-0.812,0.783-1.222C1.134,28.939,0.493,28.416,0,28.589z"></path>
	<path d="M2.544,51.288c0.394-0.724-0.711-1.371-1.105-0.646C0.959,51.524,0.48,52.406,0,53.288v2.678
		C0.848,54.407,1.696,52.847,2.544,51.288z"></path>
	<path d="M2.864,43.447c0.573-0.592-0.331-1.499-0.905-0.905C1.274,43.25,0.622,43.984,0,44.742v2.08
		C0.88,45.639,1.833,44.513,2.864,43.447z"></path>
	<path d="M0.558,34.191C0.372,34.478,0.186,34.765,0,35.052v2.353c0.554-0.856,1.109-1.712,1.663-2.568
		C2.112,34.143,1.005,33.501,0.558,34.191z"></path>
</g></g></pattern></defs><rect width="100%" height="100%" id="RctSolidBackground1" fill="url(#pattern-473-layer-1)"></rect></svg>